# Blender v3.0.0 OBJ File: ''
# www.blender.org
mtllib plate.mtl
o Plane_Plane.004
v -1.000000 0.000000 1.000000
v 1.000000 0.000000 1.000000
v -1.000000 0.000000 -1.000000
v 1.000000 0.000000 -1.000000
v -1.000000 0.153994 1.000000
v 1.000000 0.153994 1.000000
v -1.000000 0.153994 -1.000000
v 1.000000 0.153994 -1.000000
v -1.000000 0.153994 0.000000
v 0.000000 0.153994 1.000000
v 1.000000 0.153994 0.000000
v 0.000000 0.153994 -1.000000
v 0.000000 0.153994 0.000000
vt 0.000000 1.000000
vt 1.000000 0.000000
vt 0.000000 0.000000
vt 1.000000 0.500000
vt 0.500000 1.000000
vt 0.500000 0.500000
vt 0.000000 1.000000
vt 1.000000 0.000000
vt 0.500000 0.000000
vt 1.000000 1.000000
vt 1.000000 1.000000
vt 0.000000 0.000000
vt 0.000000 0.500000
vn 0.0000 -1.0000 0.0000
vn 0.0000 1.0000 0.0000
vn 0.0000 0.0000 -1.0000
vn 0.0000 0.0000 1.0000
vn 1.0000 0.0000 0.0000
vn -1.0000 0.0000 0.0000
usemtl Material.003
s off
f 3/1/1 2/2/1 1/3/1
f 11/4/2 12/5/2 13/6/2
f 3/1/3 7/7/3 12/5/3
f 2/2/4 6/8/4 10/9/4
f 4/10/5 8/11/5 11/4/5
f 1/3/6 5/12/6 9/13/6
f 13/6/2 7/7/2 9/13/2
f 10/9/2 9/13/2 5/12/2
f 6/8/2 13/6/2 10/9/2
f 3/1/1 4/10/1 2/2/1
f 11/4/2 8/11/2 12/5/2
f 8/11/3 4/10/3 12/5/3
f 4/10/3 3/1/3 12/5/3
f 5/12/4 1/3/4 10/9/4
f 1/3/4 2/2/4 10/9/4
f 6/8/5 2/2/5 11/4/5
f 2/2/5 4/10/5 11/4/5
f 7/7/6 3/1/6 9/13/6
f 3/1/6 1/3/6 9/13/6
f 13/6/2 12/5/2 7/7/2
f 10/9/2 13/6/2 9/13/2
f 6/8/2 11/4/2 13/6/2
